<svg xmlns="http://www.w3.org/2000/svg" width="900" height="500">
  <rect width="100%" height="100%" fill="black"/>
  <path stroke="gray" stroke-width="5" stroke-linecap="round" d="
    M 100,100 h 700 v 300 h -700 Z
    M 100,288 l 700,-188
    M 100,311 l 700,-188
    M 100,332.5 l 700,-188
    M 100,344 l 700,-188
    M 100,377 l 700,-188
    M 100,400 l 700,-188
  "/>
  <use href="#transfinity" stroke="fuchsia" transform="translate(5, 5)"/>
  <use href="#transfinity" stroke="aqua"/>
  <path id="transfinity" fill-opacity="0" stroke-width="10" stroke-linecap="round" stroke-linejoin="round" d="
    M 100,288 l 603,-162
    M 126,281 v 89

    M 156,361 v -66 l 25,-7 a 15.5,15.5 0 0,1 8,31
    m -16,5 l 30,25

    M 237,340 l 23,-72 l 23,60
    m -10,-22 l -10,3

    M 313,320 v -66 l 46,54 v -66

    M 389,300 l 29,-8 a 16,16 0 0,0 -8,-31 a 16,16 0 0,1 -8,-31 l 29,-8

    M 461,280 v -66 l 46,-12
    m -46,34 l 26,-7

    M 537,194 v 66

    M 567,252 v -66 l 46,54 v -66

    M 643,165 v 66

    M 673,134 v 89

    M 703,126 l 32,36
    m -10,47 l 20,-94

    M 100,400 l 645,-173
  "/>
  <g id="temp" fill-opacity="0" stroke="green" stroke-width="5" stroke-linecap="round">
    <!--
    <line x1="100" y1="100" x2="100" y2="100"
    -->
  </g>
</svg>
